<?xml version="1.0" encoding="UTF-8" standalone="no"?><!DOCTYPE svg PUBLIC "-//W3C//DTD SVG 1.1//EN" "http://www.w3.org/Graphics/SVG/1.1/DTD/svg11.dtd"><svg width="100%" height="100%" viewBox="0 0 512 512" version="1.1" xmlns="http://www.w3.org/2000/svg" xmlns:xlink="http://www.w3.org/1999/xlink" xml:space="preserve" xmlns:serif="http://www.serif.com/" style="fill-rule:evenodd;clip-rule:evenodd;stroke-linejoin:round;stroke-miterlimit:2;"><g><rect x="0" y="0" width="16" height="144" style="fill:#fff;"/><rect x="128" y="128" width="16" height="32" style="fill:#fff;"/><rect x="16" y="128" width="112" height="16" style="fill:#fff;"/><rect x="112" y="160" width="16" height="32" style="fill:#fff;"/><rect x="96" y="192" width="16" height="32" style="fill:#fff;"/><rect x="80" y="224" width="16" height="32" style="fill:#fff;"/><rect x="64" y="256" width="16" height="32" style="fill:#fff;"/><rect x="48" y="288" width="16" height="32" style="fill:#fff;"/><rect x="32" y="320" width="16" height="32" style="fill:#fff;"/><rect x="16" y="352" width="16" height="32" style="fill:#fff;"/><rect x="0" y="384" width="16" height="128" style="fill:#fff;"/><rect x="16" y="496" width="496" height="16" style="fill:#fff;"/><rect x="496" y="368" width="16" height="128" style="fill:#fff;"/><rect x="368" y="352" width="16" height="32" style="fill:#fff;"/><rect x="384" y="320" width="16" height="32" style="fill:#fff;"/><rect x="400" y="288" width="16" height="32" style="fill:#fff;"/><rect x="416" y="256" width="16" height="32" style="fill:#fff;"/><rect x="432" y="224" width="16" height="32" style="fill:#fff;"/><rect x="448" y="192" width="16" height="32" style="fill:#fff;"/><rect x="464" y="160" width="16" height="32" style="fill:#fff;"/><rect x="480" y="128" width="16" height="32" style="fill:#fff;"/><rect x="496" y="16" width="16" height="112" style="fill:#fff;"/><rect x="16" y="0" width="496" height="16" style="fill:#fff;"/><rect x="384" y="368" width="112" height="16" style="fill:#fff;"/><rect x="272" y="128" width="16" height="32" style="fill:#fff;"/><rect x="256" y="160" width="16" height="32" style="fill:#fff;"/><rect x="240" y="192" width="16" height="32" style="fill:#fff;"/><rect x="224" y="224" width="16" height="32" style="fill:#fff;"/><rect x="208" y="256" width="16" height="32" style="fill:#fff;"/><rect x="192" y="288" width="16" height="32" style="fill:#fff;"/><rect x="176" y="320" width="16" height="32" style="fill:#fff;"/><rect x="160" y="352" width="16" height="32" style="fill:#fff;"/><rect x="224" y="352" width="16" height="32" style="fill:#fff;"/><rect x="240" y="320" width="16" height="32" style="fill:#fff;"/><rect x="256" y="288" width="16" height="32" style="fill:#fff;"/><rect x="272" y="256" width="16" height="32" style="fill:#fff;"/><rect x="288" y="224" width="16" height="32" style="fill:#fff;"/><rect x="304" y="192" width="16" height="32" style="fill:#fff;"/><rect x="320" y="160" width="16" height="32" style="fill:#fff;"/><rect x="336" y="128" width="16" height="32" style="fill:#fff;"/><rect x="288" y="128" width="48" height="16" style="fill:#fff;"/><rect x="176" y="368" width="48" height="16" style="fill:#fff;"/></g><g><rect x="48" y="48" width="416" height="48" style="fill:#f00;"/><rect x="176" y="96" width="64" height="64" style="fill:#f00;"/><rect x="384" y="96" width="64" height="64" style="fill:#f00;"/><rect x="48" y="416" width="416" height="48" style="fill:#f00;"/><rect x="48" y="384" width="80" height="32" style="fill:#f00;"/><rect x="272" y="384" width="64" height="32" style="fill:#f00;"/><rect x="272" y="352" width="64" height="32" style="fill:#f00;"/><rect x="64" y="352" width="64" height="32" style="fill:#f00;"/><rect x="288" y="320" width="64" height="32" style="fill:#f00;"/><rect x="304" y="288" width="64" height="32" style="fill:#f00;"/><rect x="320" y="256" width="64" height="32" style="fill:#f00;"/><rect x="336" y="224" width="64" height="32" style="fill:#f00;"/><rect x="352" y="192" width="64" height="32" style="fill:#f00;"/><rect x="368" y="160" width="64" height="32" style="fill:#f00;"/><rect x="160" y="160" width="64" height="32" style="fill:#f00;"/><rect x="144" y="192" width="64" height="32" style="fill:#f00;"/><rect x="128" y="224" width="64" height="32" style="fill:#f00;"/><rect x="112" y="256" width="64" height="32" style="fill:#f00;"/><rect x="96" y="288" width="64" height="32" style="fill:#f00;"/><rect x="80" y="320" width="64" height="32" style="fill:#f00;"/><rect x="384" y="96" width="80" height="32" style="fill:#f00;"/></g><g><rect x="32" y="32" width="448" height="16" style="fill:#3afcff;"/><rect x="32" y="48" width="16" height="64" style="fill:#3afcff;"/><rect x="464" y="48" width="16" height="80" style="fill:#3afcff;"/><rect x="240" y="96" width="144" height="16" style="fill:#3afcff;"/><rect x="48" y="96" width="128" height="16" style="fill:#3afcff;"/><rect x="160" y="112" width="16" height="48" style="fill:#3afcff;"/><rect x="144" y="160" width="16" height="32" style="fill:#3afcff;"/><rect x="128" y="192" width="16" height="32" style="fill:#3afcff;"/><rect x="112" y="224" width="16" height="32" style="fill:#3afcff;"/><rect x="96" y="256" width="16" height="32" style="fill:#3afcff;"/><rect x="80" y="288" width="16" height="32" style="fill:#3afcff;"/><rect x="64" y="320" width="16" height="32" style="fill:#3afcff;"/><rect x="48" y="352" width="16" height="32" style="fill:#3afcff;"/><rect x="32" y="384" width="16" height="80" style="fill:#3afcff;"/><rect x="32" y="464" width="448" height="16" style="fill:#3afcff;"/><rect x="464" y="400" width="16" height="64" style="fill:#3afcff;"/><rect x="336" y="400" width="128" height="16" style="fill:#3afcff;"/><rect x="336" y="352" width="16" height="48" style="fill:#3afcff;"/><rect x="368" y="112" width="16" height="48" style="fill:#3afcff;"/><rect x="352" y="160" width="16" height="32" style="fill:#3afcff;"/><rect x="336" y="192" width="16" height="32" style="fill:#3afcff;"/><rect x="320" y="224" width="16" height="32" style="fill:#3afcff;"/><rect x="304" y="256" width="16" height="32" style="fill:#3afcff;"/><rect x="288" y="288" width="16" height="32" style="fill:#3afcff;"/><rect x="272" y="320" width="16" height="32" style="fill:#3afcff;"/><rect x="256" y="352" width="16" height="64" style="fill:#3afcff;"/><rect x="128" y="352" width="16" height="64" style="fill:#3afcff;"/><rect x="144" y="400" width="112" height="16" style="fill:#3afcff;"/><rect x="144" y="320" width="16" height="32" style="fill:#3afcff;"/><rect x="160" y="288" width="16" height="32" style="fill:#3afcff;"/><rect x="160" y="320" width="16" height="32"/><rect x="176" y="256" width="16" height="32" style="fill:#3afcff;"/><rect x="192" y="224" width="16" height="32" style="fill:#3afcff;"/><g id="Layer2"></g><rect x="208" y="192" width="16" height="32" style="fill:#3afcff;"/><rect x="224" y="160" width="16" height="32" style="fill:#3afcff;"/><rect x="240" y="112" width="16" height="48" style="fill:#3afcff;"/><rect x="448" y="128" width="16" height="32" style="fill:#3afcff;"/><rect x="432" y="160" width="16" height="32" style="fill:#3afcff;"/><rect x="416" y="192" width="16" height="32" style="fill:#3afcff;"/><rect x="400" y="224" width="16" height="32" style="fill:#3afcff;"/><rect x="384" y="256" width="16" height="32" style="fill:#3afcff;"/><rect x="368" y="288" width="16" height="32" style="fill:#3afcff;"/><rect x="352" y="320" width="16" height="32" style="fill:#3afcff;"/></g><g><rect x="16" y="16" width="480" height="16"/><rect x="16" y="32" width="16" height="96"/><rect x="480" y="32" width="16" height="96"/><rect x="464" y="128" width="16" height="32"/><rect x="448" y="160" width="16" height="32"/><rect x="432" y="192" width="16" height="32"/><rect x="416" y="224" width="16" height="32"/><rect x="400" y="256" width="16" height="32"/><rect x="384" y="288" width="16" height="32"/><rect x="368" y="320" width="16" height="32"/><rect x="352" y="352" width="16" height="48"/><rect x="368" y="384" width="128" height="16"/><rect x="480" y="400" width="16" height="96"/><rect x="16" y="480" width="464" height="16"/><rect x="16" y="384" width="16" height="96"/><rect x="32" y="352" width="16" height="32"/><rect x="48" y="320" width="16" height="32"/><rect x="64" y="288" width="16" height="32"/><rect x="80" y="256" width="16" height="32"/><rect x="96" y="224" width="16" height="32"/><rect x="112" y="192" width="16" height="32"/><rect x="128" y="160" width="16" height="32"/><rect x="144" y="112" width="16" height="48"/><rect x="32" y="112" width="112" height="16"/><rect x="256" y="112" width="112" height="16"/><rect x="352" y="128" width="16" height="32"/><rect x="336" y="160" width="16" height="32"/><rect x="320" y="192" width="16" height="32"/><rect x="304" y="224" width="16" height="32"/><rect x="288" y="256" width="16" height="32"/><rect x="272" y="288" width="16" height="32"/><rect x="256" y="320" width="16" height="32"/><rect x="240" y="352" width="16" height="48"/><rect x="144" y="352" width="16" height="48"/><rect x="160" y="384" width="80" height="16"/><rect x="256" y="128" width="16" height="32"/><rect x="240" y="160" width="16" height="32"/><rect x="224" y="192" width="16" height="32"/><rect x="208" y="224" width="16" height="32"/><rect x="192" y="256" width="16" height="32"/><rect x="176" y="288" width="16" height="32"/></g></svg>